<svg width="512" height="512" viewBox="0 0 512 512" fill="none" xmlns="http://www.w3.org/2000/svg">
<path d="M462.584 360.362C434.745 360.362 412.085 337.702 412.085 309.863C412.085 299.713 403.858 291.492 393.714 291.492C383.571 291.492 375.35 299.713 375.35 309.863C375.35 337.702 352.69 360.362 324.845 360.362C297.005 360.362 274.346 337.702 274.346 309.863C274.346 299.713 266.118 291.492 255.975 291.492C245.831 291.492 237.61 299.713 237.61 309.863C237.61 337.702 214.95 360.362 187.105 360.362C159.265 360.362 136.606 337.702 136.606 309.863C136.606 299.713 128.378 291.492 118.235 291.492C108.091 291.492 99.8699 299.713 99.8699 309.863C99.8699 337.702 77.2106 360.362 49.3649 360.362C39.2207 360.362 31 368.583 31 378.732C31 388.877 39.2214 397.097 49.3649 397.097C77.3732 397.097 102.265 383.783 118.242 363.203C134.219 383.783 159.11 397.097 187.12 397.097C215.128 397.097 240.02 383.783 255.997 363.203C271.974 383.783 296.865 397.097 324.874 397.097C352.884 397.097 377.775 383.783 393.752 363.203C409.729 383.783 434.619 397.097 462.629 397.097C472.773 397.097 481 388.876 481 378.732C480.959 368.588 472.732 360.362 462.593 360.362H462.584Z" fill="#041825"/>
<path d="M167.496 296.684C177.64 296.684 185.861 288.463 185.861 278.319V152.114C252.984 160.889 326.044 215.416 326.044 278.319C326.044 288.463 334.265 296.684 344.409 296.684C354.552 296.684 362.774 288.463 362.774 278.319C362.774 234.986 339.565 193.186 297.411 160.579C259.689 131.416 211.129 114 167.493 114C157.349 114 149.128 122.221 149.128 132.365V278.318C149.134 288.462 157.355 296.683 167.493 296.683L167.496 296.684Z" fill="#041825"/>
</svg>
