<svg width="512" height="512" viewBox="0 0 512 512" fill="none" xmlns="http://www.w3.org/2000/svg">
<path d="M462.584 300.362C434.745 300.362 412.085 277.702 412.085 249.863C412.085 239.713 403.858 231.492 393.714 231.492C383.571 231.492 375.35 239.713 375.35 249.863C375.35 277.702 352.69 300.362 324.845 300.362C297.005 300.362 274.346 277.702 274.346 249.863C274.346 239.713 266.118 231.492 255.975 231.492C245.831 231.492 237.61 239.713 237.61 249.863C237.61 277.702 214.95 300.362 187.105 300.362C159.265 300.362 136.606 277.702 136.606 249.863C136.606 239.713 128.378 231.492 118.235 231.492C108.091 231.492 99.8699 239.713 99.8699 249.863C99.8699 277.702 77.2106 300.362 49.3649 300.362C39.2207 300.362 31 308.583 31 318.732C31 328.877 39.2214 337.097 49.3649 337.097C77.3732 337.097 102.265 323.783 118.242 303.203C134.219 323.783 159.11 337.097 187.12 337.097C215.128 337.097 240.02 323.783 255.997 303.203C271.974 323.783 296.865 337.097 324.874 337.097C352.884 337.097 377.775 323.783 393.752 303.203C409.729 323.783 434.619 337.097 462.629 337.097C472.773 337.097 481 328.876 481 318.732C480.959 308.588 472.732 300.362 462.593 300.362H462.584Z" fill="#041825"/>
<path d="M167.496 236.684C177.64 236.684 185.861 228.463 185.861 218.319V92.1141C252.984 100.889 326.044 155.416 326.044 218.319C326.044 228.463 334.265 236.684 344.409 236.684C354.552 236.684 362.774 228.463 362.774 218.319C362.774 174.986 339.565 133.186 297.411 100.579C259.689 71.4162 211.129 54 167.493 54C157.349 54 149.128 62.2214 149.128 72.3649V218.318C149.134 228.462 157.355 236.683 167.493 236.683L167.496 236.684Z" fill="#041825"/>
<path d="M77.072 432.448C74.128 432.448 71.4827 431.936 69.136 430.912C66.832 429.845 65.0187 428.395 63.696 426.56C62.3733 424.683 61.6907 422.528 61.648 420.096H67.856C68.0693 422.187 68.9227 423.957 70.416 425.408C71.952 426.816 74.1707 427.52 77.072 427.52C79.8453 427.52 82.0213 426.837 83.6 425.472C85.2213 424.064 86.032 422.272 86.032 420.096C86.032 418.389 85.5627 417.003 84.624 415.936C83.6853 414.869 82.512 414.059 81.104 413.504C79.696 412.949 77.7973 412.352 75.408 411.712C72.464 410.944 70.096 410.176 68.304 409.408C66.5547 408.64 65.04 407.445 63.76 405.824C62.5227 404.16 61.904 401.941 61.904 399.168C61.904 396.736 62.5227 394.581 63.76 392.704C64.9973 390.827 66.7253 389.376 68.944 388.352C71.2053 387.328 73.7867 386.816 76.688 386.816C80.8693 386.816 84.2827 387.861 86.928 389.952C89.616 392.043 91.1307 394.816 91.472 398.272H85.072C84.8587 396.565 83.9627 395.072 82.384 393.792C80.8053 392.469 78.7147 391.808 76.112 391.808C73.68 391.808 71.696 392.448 70.16 393.728C68.624 394.965 67.856 396.715 67.856 398.976C67.856 400.597 68.304 401.92 69.2 402.944C70.1387 403.968 71.2693 404.757 72.592 405.312C73.9573 405.824 75.856 406.421 78.288 407.104C81.232 407.915 83.6 408.725 85.392 409.536C87.184 410.304 88.72 411.52 90 413.184C91.28 414.805 91.92 417.024 91.92 419.84C91.92 422.016 91.344 424.064 90.192 425.984C89.04 427.904 87.3333 429.461 85.072 430.656C82.8107 431.851 80.144 432.448 77.072 432.448ZM117.899 396.288C120.544 396.288 122.933 396.864 125.067 398.016C127.2 399.125 128.864 400.811 130.059 403.072C131.296 405.333 131.915 408.085 131.915 411.328V432H126.155V412.16C126.155 408.661 125.28 405.995 123.531 404.16C121.781 402.283 119.392 401.344 116.363 401.344C113.291 401.344 110.837 402.304 109.003 404.224C107.211 406.144 106.315 408.939 106.315 412.608V432H100.491V384.64H106.315V401.92C107.467 400.128 109.045 398.741 111.051 397.76C113.099 396.779 115.381 396.288 117.899 396.288ZM139.252 414.336C139.252 410.752 139.977 407.616 141.428 404.928C142.879 402.197 144.863 400.085 147.38 398.592C149.94 397.099 152.777 396.352 155.892 396.352C158.964 396.352 161.631 397.013 163.892 398.336C166.153 399.659 167.839 401.323 168.948 403.328V396.928H174.836V432H168.948V425.472C167.796 427.52 166.068 429.227 163.764 430.592C161.503 431.915 158.857 432.576 155.828 432.576C152.713 432.576 149.897 431.808 147.38 430.272C144.863 428.736 142.879 426.581 141.428 423.808C139.977 421.035 139.252 417.877 139.252 414.336ZM168.948 414.4C168.948 411.755 168.415 409.451 167.348 407.488C166.281 405.525 164.831 404.032 162.996 403.008C161.204 401.941 159.22 401.408 157.044 401.408C154.868 401.408 152.884 401.92 151.092 402.944C149.3 403.968 147.871 405.461 146.804 407.424C145.737 409.387 145.204 411.691 145.204 414.336C145.204 417.024 145.737 419.371 146.804 421.376C147.871 423.339 149.3 424.853 151.092 425.92C152.884 426.944 154.868 427.456 157.044 427.456C159.22 427.456 161.204 426.944 162.996 425.92C164.831 424.853 166.281 423.339 167.348 421.376C168.415 419.371 168.948 417.045 168.948 414.4ZM190.502 402.624C191.526 400.619 192.977 399.061 194.854 397.952C196.774 396.843 199.099 396.288 201.83 396.288V402.304H200.294C193.766 402.304 190.502 405.845 190.502 412.928V432H184.678V396.928H190.502V402.624ZM228.137 432L214.377 416.512V432H208.553V384.64H214.377V412.48L227.881 396.928H236.009L219.497 414.4L236.073 432H228.137ZM314.617 387.392L301.689 432H295.161L284.793 396.096L274.041 432L267.577 432.064L255.097 387.392H261.305L271.033 425.216L281.785 387.392H288.313L298.553 425.088L308.345 387.392H314.617ZM318.815 414.336C318.815 410.752 319.54 407.616 320.991 404.928C322.441 402.197 324.425 400.085 326.943 398.592C329.503 397.099 332.34 396.352 335.455 396.352C338.527 396.352 341.193 397.013 343.455 398.336C345.716 399.659 347.401 401.323 348.511 403.328V396.928H354.399V432H348.511V425.472C347.359 427.52 345.631 429.227 343.327 430.592C341.065 431.915 338.42 432.576 335.391 432.576C332.276 432.576 329.46 431.808 326.943 430.272C324.425 428.736 322.441 426.581 320.991 423.808C319.54 421.035 318.815 417.877 318.815 414.336ZM348.511 414.4C348.511 411.755 347.977 409.451 346.911 407.488C345.844 405.525 344.393 404.032 342.559 403.008C340.767 401.941 338.783 401.408 336.607 401.408C334.431 401.408 332.447 401.92 330.655 402.944C328.863 403.968 327.433 405.461 326.367 407.424C325.3 409.387 324.767 411.691 324.767 414.336C324.767 417.024 325.3 419.371 326.367 421.376C327.433 423.339 328.863 424.853 330.655 425.92C332.447 426.944 334.431 427.456 336.607 427.456C338.783 427.456 340.767 426.944 342.559 425.92C344.393 424.853 345.844 423.339 346.911 421.376C347.977 419.371 348.511 417.045 348.511 414.4ZM370.065 384.64V432H364.241V384.64H370.065ZM385.815 384.64V432H379.991V384.64H385.815ZM427.741 413.12C427.741 414.229 427.677 415.403 427.549 416.64H399.517C399.73 420.096 400.903 422.805 403.037 424.768C405.213 426.688 407.837 427.648 410.909 427.648C413.426 427.648 415.517 427.072 417.181 425.92C418.887 424.725 420.082 423.147 420.765 421.184H427.037C426.098 424.555 424.221 427.307 421.405 429.44C418.589 431.531 415.09 432.576 410.909 432.576C407.581 432.576 404.594 431.829 401.949 430.336C399.346 428.843 397.298 426.731 395.805 424C394.311 421.227 393.565 418.027 393.565 414.4C393.565 410.773 394.29 407.595 395.741 404.864C397.191 402.133 399.218 400.043 401.821 398.592C404.466 397.099 407.495 396.352 410.909 396.352C414.237 396.352 417.181 397.077 419.741 398.528C422.301 399.979 424.263 401.984 425.629 404.544C427.037 407.061 427.741 409.92 427.741 413.12ZM421.725 411.904C421.725 409.685 421.234 407.787 420.253 406.208C419.271 404.587 417.927 403.371 416.221 402.56C414.557 401.707 412.701 401.28 410.653 401.28C407.709 401.28 405.191 402.219 403.101 404.096C401.053 405.973 399.879 408.576 399.581 411.904H421.725ZM442.532 401.728V422.4C442.532 424.107 442.895 425.323 443.62 426.048C444.345 426.731 445.604 427.072 447.396 427.072H451.684V432H446.436C443.193 432 440.761 431.253 439.14 429.76C437.519 428.267 436.708 425.813 436.708 422.4V401.728H432.164V396.928H436.708V388.096H442.532V396.928H451.684V401.728H442.532Z" fill="#041825"/>
</svg>
